#!OML:ASF F:\VICON\USERDATA\INSTALL\rory3\rory3.ASF
:FULLY-SPECIFIED
:DEGREES
52
root 0.46378365780332587 17.52400845738923 20.92740022150442 1.3501294161458286 3.7930732922033705 5.3170641179557485
lfemur -6.219685169622209 -5.433503711726668 -28.499333824996107
ltibia 35.5481631437936
lfoot -13.845609336756807 2.47892285176219
ltoes -0.2800538301338653
rfemur -30.183414839909457 -0.8359657613134108 19.751421234197384
rtibia 83.75946174659148
rfoot 4.743317420092363 -8.493278821198611
rtoes 11.316772835082663
lowerback 13.808429009855905 1.0228709406954046 -2.1760494202137117
upperback -0.04480481247023771 1.0491655033534701 0.054619039316155416
thorax -7.504590271693094 0.6045130441844803 2.3048222735709345
lowerneck -18.417808170069375 -3.0077928716618136 -3.2481054848705124
upperneck 18.285237870614303 -3.515901256368621 2.0729979125266267
head 8.688682738064964 -1.5563734626666783 0.7273873178510524
lclavicle -2.2620960874670423e-15 6.844451734386013e-16
lhumerus -34.53388714952973 -8.174724245914797 90.73807987552436
lradius 64.2899256512971
lwrist 17.543224911254292
lhand -26.9857886073339 15.779551413257899
lfingers 7.125019999999999
lthumb -0.4274720354149973 45.78326227006221
rclavicle -2.258329649813781e-15 6.870957399135586e-16
rhumerus -38.38482592948851 -5.725625269452245 -89.31347163273934
rradius 65.64401608659766
rwrist -1.4829920989941252
rhand -17.511483373177846 29.649844856853996
rfingers 7.125019999999999
rthumb 8.49855897399657 0.12028603154933615
53
root 0.4259156267710629 17.441640112944075 21.46943127674973 2.0868226889782697 3.3239387792535133 4.702983537312942
lfemur -4.945515837679029 -5.414240794004103 -27.988744539818136
ltibia 36.52279363900471
lfoot -12.796567250685072 2.333208951616182
ltoes -2.360386111450807
rfemur -31.50961844031361 -0.14981159484148776 20.790528236310816
rtibia 82.34557852318312
rfoot 4.266187369545664 -7.90130373982594
rtoes 8.987859240803864
lowerback 13.734209838405837 0.9609340044670196 -1.9195232168616048
upperback -0.08506364674227002 1.022421567352331 0.3794568070770368
thorax -7.636148703451336 0.6109009739181552 2.374230966511145
lowerneck -18.461319850085918 -3.0716801105643037 -3.247966806210618
upperneck 18.131170963143223 -3.6197567822100885 2.1526577357484307
head 8.677414351151288 -1.6094481796289932 0.751914791377833
lclavicle -2.261203501841861e-15 6.850638844004838e-16
lhumerus -32.90821898506804 -8.585190150090101 90.85083265520406
lradius 66.18709446009184
lwrist 16.346066223618383
lhand -26.56505377481923 15.5890208503578
lfingers 7.125019999999999
lthumb -0.11308984255349025 45.581436499845914
rclavicle -2.261852539163668e-15 6.846255845232551e-16
rhumerus -38.95317155230937 -5.687298215614612 -89.55054966311118
rradius 65.37849357570158
rwrist -1.7409506037676357
rhand -17.520733079950993 29.699153074761288
rfingers 7.125019999999999
rthumb 8.544784479729282 0.09543327919137767
54
root 0.41860418033711244 17.41454323634442 22.305281006086386 2.6926097638604922 2.990989873709184 4.830791766184831
lfemur -2.8737529275675886 -5.543608899258444 -28.08815919649053
ltibia 36.819667287114505
lfoot -10.846429869083599 2.048140785023285
ltoes -5.13384613590471
rfemur -32.54718072342011 0.2546447517914441 21.016426405542127
rtibia 80.09404283300995
rfoot 4.130099382133343 -7.904891580537558
rtoes 6.793346513555747
lowerback 13.774658851977366 0.7647666075412479 -2.0476887841051106
upperback -0.16545199881624312 0.7007635604785108 0.4918509046312598
thorax -7.7475079074802755 0.4700034385347982 2.618845659554519
lowerneck -18.526434030258656 -3.061784936377352 -3.1608693210641583
upperneck 17.937116848425166 -3.669090053180447 2.2393716963387758
head 8.651698200572278 -1.614189024523081 0.7799987148964604
lclavicle -2.2640264066979904e-15 6.830842185214329e-16
lhumerus -31.807697683850485 -8.956884563905295 90.93753985384049
lradius 68.84002825579616
lwrist 16.362685374179122
lhand -26.20629193383016 15.022452047850145
lfingers 7.125019999999999
lthumb 0.10797464278864288 45.052198388410915
rclavicle -2.262366622891636e-15 6.842649989768298e-16
rhumerus -39.51166213537488 -5.512733290661424 -89.79534092537348
rradius 65.14854740858546
rwrist -1.7003343380894356
rhand -17.30586083952185 29.818662675739052
rfingers 7.125019999999999
rthumb 8.817198648469462 0.15261202265545526
55
root 0.4084402211173193 17.424260247904865 22.88879953573077 3.1718010987792824 2.6129886764638357 4.79075731211219
lfemur -0.837224665453725 -5.69140112591135 -27.999707589954745
ltibia 36.67236279195567
lfoot -7.9778915444656935 1.2326057324835662
ltoes -9.340692582419418
rfemur -33.1217595489026 0.4728788163244224 21.468058535989236
rtibia 77.03111663152002
rfoot 4.125443976681102 -8.078764282779675
rtoes 5.911844200677588
lowerback 13.774017030304234 0.3990485212746997 -2.185602672557149
upperback -0.3088639917353022 0.14890393866322715 0.6435193817653617
thorax -7.856913177565276 0.20829059958182916 3.046206549092884
lowerneck -18.353194475498633 -3.03561324021046 -3.1486988605227113
upperneck 17.784467020529583 -3.6647754219387463 2.365624607385662
head 8.596874370617812 -1.5965378896688414 0.8456356337024284
lclavicle -2.263406955576532e-15 6.835132389504783e-16
lhumerus -31.304067357069417 -8.705858315681446 91.02930687440704
lradius 71.72574273199912
lwrist 18.096164958870112
lhand -25.91325603064589 13.975740852418417
lfingers 7.125019999999999
lthumb 0.3327637494930461 43.83865923273401
rclavicle -2.2600578247724352e-15 6.858839266662747e-16
rhumerus -40.30118486109939 -5.324338838639772 -90.04791786231986
rradius 64.92112291421473
rwrist -1.7632081817123881
rhand -16.922362098830703 29.980405933717087
rfingers 7.125019999999999
rthumb 9.267554365814686 0.25004499316226325
